<?xml version="1.0" encoding="utf-8"?>
<!-- Generator: Adobe Illustrator 24.0.1, SVG Export Plug-In . SVG Version: 6.00 Build 0)  -->
<svg version="1.1" id="Layer_1" xmlns="http://www.w3.org/2000/svg" xmlns:xlink="http://www.w3.org/1999/xlink" x="0px" y="0px"
	 viewBox="0 0 103 103" style="enable-background:new 0 0 103 103;" xml:space="preserve">
<style type="text/css">
	.st0{fill:#064876;}
</style>
<path id="Path_110" class="st0" d="M18.7,15.4v56.1H8.4l16,16L40,71.9H28.8V15.4H18.7z"/>
<path id="Path_111" class="st0" d="M16.9,15.5v56.1l1.8-1.8H8.4c-1,0-1.8,0.8-1.8,1.8c0,0.4,0.2,0.9,0.5,1.2c4.7,4.7,9.3,9.3,14,14
	l2,2c0.7,0.7,1.8,0.7,2.5,0c4.6-4.6,9.1-9.1,13.7-13.7l1.9-1.9c0.7-0.7,0.7-1.9-0.1-2.5c-0.3-0.3-0.7-0.5-1.2-0.5H28.8l1.8,1.8V15.5
	c0-1-0.8-1.8-1.8-1.8H18.7C17.7,13.7,16.9,14.6,16.9,15.5c0.1,1,0.8,1.7,1.8,1.8h10.1L27,15.5v56.4c0,1,0.8,1.8,1.8,1.8H40
	c-0.4-1-0.8-2-1.3-3c-4.6,4.6-9.1,9.1-13.7,13.7l-1.9,1.9h2.5c-4.7-4.7-9.3-9.3-14-14l-2-2c-0.4,1-0.8,2-1.3,3h10.3
	c1,0,1.8-0.8,1.8-1.8v-56c0-1-0.8-1.8-1.8-1.8C17.7,13.7,16.9,14.5,16.9,15.5z"/>
<path class="st0" d="M71.5,17.3c-0.4-0.2-0.7-0.4-1.2-0.4H53.7c-1.2,0-2.2,1-2.2,2.2v8.3c0,1.2,1,2.2,2.2,2.2h16.5
	c1.2,0,2.2-1,2.2-2.2v-8.3C72.4,18.4,71.9,17.7,71.5,17.3z"/>
<path class="st0" d="M83,43.7c-0.4-0.2-0.7-0.4-1.2-0.4H53.7c-1.2,0-2.2,1-2.2,2.2v8.3c0,1.2,1,2.2,2.2,2.2h28.1
	c1.2,0,2.2-1,2.2-2.2v-8.3C84,44.8,83.7,44.1,83,43.7z"/>
<path class="st0" d="M94.6,70.1c-0.4-0.2-0.7-0.4-1.2-0.4H53.7c-1.2,0-2.2,1-2.2,2.2v8.3c0,1.2,1,2.2,2.2,2.2h39.7
	c1.2,0,2.2-1,2.2-2.2v-8.3C95.6,71,95.2,70.4,94.6,70.1z"/>
</svg>
