<?xml version="1.0" encoding="UTF-8" standalone="no"?>
<!DOCTYPE svg PUBLIC "-//W3C//DTD SVG 1.1//EN" "http://www.w3.org/Graphics/SVG/1.1/DTD/svg11.dtd">
<svg width="100%" height="100%" viewBox="0 0 100 100" version="1.1" xmlns="http://www.w3.org/2000/svg" xmlns:xlink="http://www.w3.org/1999/xlink" xml:space="preserve" xmlns:serif="http://www.serif.com/" style="fill-rule:evenodd;clip-rule:evenodd;stroke-linejoin:round;stroke-miterlimit:2;">
    <g transform="matrix(1.22742,0,0,1.22742,-11.3711,-1180.32)">
        <path d="M17,976.362C16.203,976.362 15.444,976.52 14.75,976.8L48.219,1006.61C49.385,1007.65 50.68,1007.65 51.844,1006.61L85.25,976.8C84.556,976.52 83.796,976.362 83,976.362L17,976.362ZM11.062,981.518C11.024,981.792 11,982.078 11,982.362L11,1022.36C11,1023.18 11.173,1023.96 11.469,1024.67L34.563,1002.49L11.063,981.518L11.062,981.518ZM88.937,981.518L65.5,1002.46L88.562,1024.64C88.849,1023.94 89,1023.17 89,1022.36L89,982.362C89,982.078 88.975,981.792 88.938,981.518L88.937,981.518ZM61,1006.49L55.844,1011.11C52.566,1014.04 47.496,1014.03 44.219,1011.11L39.062,1006.52L16.312,1028.33C16.535,1028.36 16.771,1028.36 17,1028.36L83,1028.36C83.218,1028.36 83.444,1028.35 83.656,1028.33L61,1006.49Z" style="fill:rgb(4,74,116);fill-rule:nonzero;"/>
    </g>
</svg>
