<?xml version="1.0" encoding="utf-8"?>
<!-- Generator: Adobe Illustrator 24.0.1, SVG Export Plug-In . SVG Version: 6.00 Build 0)  -->
<svg version="1.1" id="Layer_1" xmlns="http://www.w3.org/2000/svg" xmlns:xlink="http://www.w3.org/1999/xlink" x="0px" y="0px"
	 viewBox="0 0 103 103" style="enable-background:new 0 0 103 103;" xml:space="preserve">
<style type="text/css">
	.st0{fill:#064876;}
	.st1{fill:#FFFFFF;}
</style>
<g id="Group_220_2_" transform="translate(-16.734 -17)">
	<path id="Path_119_2_" class="st0" d="M113.7,93.3c0,0.4-0.2,0.9-0.5,0.9c-7.1,2.4-14.7,3.1-22.1,2c1.4-1,2-2.8,1.4-4.5
		c-0.9-3.8-2.2-7.4-3.9-10.9c2.2-3.1,5.7-5,9.5-5.2C106.6,75.6,111.8,86.3,113.7,93.3z"/>
	<path id="Path_120_2_" class="st0" d="M107.3,62.9c0,5.1-4.2,9.3-9.3,9.3c-5.1,0-9.3-4.2-9.3-9.3s4.2-9.3,9.3-9.3l0,0
		C103.1,53.7,107.3,57.8,107.3,62.9z"/>
	<path id="Path_121_2_" class="st0" d="M81.2,52.2c0,7.2-5.9,12.9-13,12.9c-7.2,0-12.9-5.9-12.9-13c0-7.1,5.8-12.8,12.9-12.9
		C75.3,39.1,81.2,44.9,81.2,52.2C81.2,52.2,81.2,52.2,81.2,52.2z"/>
	<path id="Path_122_2_" class="st0" d="M88.7,94.2C75.5,99,61,99,47.8,94.2c-0.7-0.2-1.1-0.9-0.9-1.6c0-0.1,0-0.1,0.1-0.2
		c2.5-9.7,9.5-24.3,21.3-24.3s18.9,14.7,21.4,24.3C89.8,93.2,89.4,93.9,88.7,94.2z"/>
	<path id="Path_123_2_" class="st0" d="M45.3,96.2c-7.4,1.1-14.9,0.5-22-2c-0.4-0.1-0.6-0.4-0.6-0.8c0,0,0-0.1,0-0.1
		c2-7,7-17.7,15.5-17.7c3.8,0.2,7.4,2.1,9.7,5.2c-1.8,3.5-3.1,7.1-4.1,10.9C43.5,93.4,44,95.1,45.3,96.2z"/>
	<path id="Path_124_2_" class="st0" d="M47.8,62.9c0.1,5.2-4.1,9.4-9.3,9.5c-5.2,0.1-9.4-4.1-9.5-9.3c-0.1-5.2,4.1-9.4,9.3-9.5
		c0,0,0,0,0,0C43.5,53.7,47.7,57.8,47.8,62.9z"/>
</g>
</svg>
