<?xml version="1.0" encoding="UTF-8" standalone="no"?>
<!DOCTYPE svg PUBLIC "-//W3C//DTD SVG 1.1//EN" "http://www.w3.org/Graphics/SVG/1.1/DTD/svg11.dtd">
<svg width="100%" height="100%" viewBox="0 0 28 28" version="1.1" xmlns="http://www.w3.org/2000/svg" xmlns:xlink="http://www.w3.org/1999/xlink" xml:space="preserve" xmlns:serif="http://www.serif.com/" style="fill-rule:evenodd;clip-rule:evenodd;stroke-linejoin:round;stroke-miterlimit:2;">
    <g transform="matrix(1,0,0,1,-474.88,-292.88)">
        <g id="Artboard5" transform="matrix(1.18325,0,0,1.18325,-89.8404,-56.261)">
            <rect x="477.263" y="295.07" width="23.134" height="23.134" style="fill:none;"/>
            <g transform="matrix(0.215095,0,0,0.215095,480.335,298.156)">
                <path d="M71.65,7.35C66.947,2.648 60.561,0.003 53.911,0.003C40.147,0.003 28.821,11.329 28.821,25.093C28.821,28.198 29.397,31.276 30.52,34.17L0,64.68L1.27,78.45L14.46,78.86L44.83,48.48C47.724,49.603 50.802,50.179 53.907,50.179C67.671,50.179 78.997,38.853 78.997,25.089C78.997,18.439 76.352,12.053 71.65,7.35ZM66.65,21.64C65.249,23.042 63.347,23.83 61.366,23.83C57.268,23.83 53.896,20.458 53.896,16.36C53.896,12.262 57.268,8.89 61.366,8.89C63.347,8.89 65.249,9.678 66.65,11.08C68.052,12.479 68.84,14.38 68.84,16.36C68.84,18.34 68.052,20.241 66.65,21.64Z" style="fill:rgb(6,79,129);fill-rule:nonzero;"/>
            </g>
        </g>
    </g>
</svg>
