<?xml version="1.0" encoding="UTF-8" standalone="no"?>
<!DOCTYPE svg PUBLIC "-//W3C//DTD SVG 1.1//EN" "http://www.w3.org/Graphics/SVG/1.1/DTD/svg11.dtd">
<svg width="100%" height="100%" viewBox="0 0 156 55" version="1.1" xmlns="http://www.w3.org/2000/svg" xmlns:xlink="http://www.w3.org/1999/xlink" xml:space="preserve" xmlns:serif="http://www.serif.com/" style="fill-rule:evenodd;clip-rule:evenodd;stroke-linejoin:round;stroke-miterlimit:2;">
    <g transform="matrix(1,0,0,1,-434,-135.674)">
        <g transform="matrix(1,0,0,0.888115,-0.493178,19.7807)">
            <rect x="434.493" y="130.494" width="155.608" height="61.207" style="fill:none;"/>
        </g>
        <g transform="matrix(1,0,0,1,0,6.9851e-05)">
            <g transform="matrix(0.110698,0,0,0.110698,432.873,136.997)">
                <g transform="matrix(1,0,0,1,571.659,341.859)">
                    <path d="M0,-209.369L-15.228,-207.783L-20.382,-207.249L-39.021,-205.318C-36.884,-226.421 -36.468,-248.34 -38.206,-270.991C-38.206,-270.991 -100.67,-304.027 -225.381,-306.471C-378.055,-309.463 -478.837,-267.692 -478.837,-267.692C-478.785,-228.125 -474.362,-192.685 -466.691,-160.948L-536.771,-153.677L-526.521,-123.991L-532.508,-89.123L-528.887,-84.683L-522.215,-76.873L-534.354,-75.153L-544.042,-16.58L-451.706,-31.053L-442.17,-41.612L-443.608,-32.322L-410.871,-37.456C-330.382,74.624 -207.102,100.094 -207.102,100.094C-207.102,100.094 -146.497,50.771 -97.663,-32.507L5.802,-47.89L13.691,-104.027L29.005,-106.428L36.459,-171.609L53.248,-173.532L59.186,-215.51L0,-209.369Z" style="fill:white;fill-rule:nonzero;"/>
                </g>
                <g transform="matrix(1,0,0,1,165.641,183.786)">
                    <path d="M0,109.019L3.844,114.373C71.998,209.276 172.71,240.342 196.111,246.47C210.164,234.105 258.979,188.603 299.119,120.15L301.711,115.729L402.331,100.77L410.21,44.698L425.312,42.331L432.806,-23.204L449.824,-25.154L452.684,-45.374L355.018,-35.24L356.343,-48.324C358.28,-67.441 358.687,-86.771 357.559,-105.88C340.326,-113.371 280.794,-135.726 180.427,-137.692C53.613,-140.184 -37.411,-111.104 -62.05,-102.243C-61.513,-68.091 -57.555,-35.543 -50.266,-5.39L-47.39,6.511L-116.23,13.654L-109.486,33.186L-115.114,65.959L-114.647,66.531L-95.396,89.068L-119.056,92.419L-125.044,128.621L-51.093,117.031L-20.091,82.702L-24.767,112.903L0,109.019ZM201.729,269.683L196.75,268.653C195.435,268.381 164.086,261.765 122.438,241.004C85.215,222.451 32.6,188.659 -9.634,132.204L-151.007,154.365L-137.618,73.422L-136.76,73.3L-137.868,71.942L-131.521,34.98L-145.278,-4.86L-73.772,-12.28C-80.204,-42.862 -83.482,-75.538 -83.526,-109.605L-83.535,-116.767L-76.919,-119.509C-75.855,-119.95 -50.371,-130.417 -5.718,-140.57C35.264,-149.889 100.894,-160.664 180.847,-159.102C306.656,-156.636 370.175,-123.78 372.817,-122.382L378.036,-119.623L378.487,-113.737C379.873,-95.682 379.957,-77.402 378.744,-59.226L477.724,-69.5L468.707,-5.764L452.147,-3.867L444.734,60.961L429.208,63.394L421.309,119.598L314.967,135.408C266.235,216.697 208.166,264.444 205.674,266.472L201.729,269.683Z" style="fill:white;fill-rule:nonzero;"/>
                </g>
                <g transform="matrix(-0.139163,0.990269,0.990269,0.139163,542.225,354.84)">
                    <path d="M-134.007,26.422L-65.182,26.422L-22.969,-116.492L-94.574,-92.832L-134.007,26.422Z" style="fill:rgb(8,43,71);fill-rule:nonzero;"/>
                </g>
                <g transform="matrix(372.127,-124.042,-124.042,-372.127,176.074,268.194)">
                    <path d="M-0.045,0.536C-0.295,-0.218 0.316,-0.572 0.316,-0.572C0.316,-0.572 0.887,-0.356 1.023,0.189C1.023,0.189 0.899,0.319 0.599,0.426C0.587,0.43 0.574,0.435 0.562,0.439C0.214,0.555 -0.045,0.536 -0.045,0.536Z" style="fill:url(#_Linear1);fill-rule:nonzero;"/>
                </g>
                <g transform="matrix(1,0,0,1,363.543,49.9122)">
                    <path d="M0,372.016C-17.504,366.734 -63.043,350.377 -111.149,312.038C-148.773,282.053 -179.963,245.198 -203.005,202.917C-230.408,152.637 -245.496,96.031 -247.546,35.961C-215.783,24.982 -130.531,0 -16.57,0.939C81.484,1.748 139.187,22.018 158.033,29.87C160.354,74.133 155.159,117.497 142.147,159.588C130.614,196.891 112.715,234.083 88.314,270.539C53.938,321.898 16.037,357.853 0,372.016" style="fill:rgb(8,43,71);fill-rule:nonzero;"/>
                </g>
                <g transform="matrix(1,0,0,1,496.226,362.398)">
                    <path d="M0,-262.936C-0.284,-228.382 -5.643,-194.509 -16.253,-161.631C-23.825,-138.17 -34.15,-114.843 -47.25,-91.831C-53.52,-80.806 -60.44,-69.833 -68.016,-58.926C-73.687,-50.768 -79.453,-43.031 -85.184,-35.76C-103.361,-12.703 -121.191,5.676 -134.736,18.502C-149.658,12.276 -170.449,2.043 -193.217,-13.723C-200.527,-18.773 -208.044,-24.402 -215.631,-30.649C-226.318,-39.454 -236.43,-48.896 -245.914,-58.933C-265.787,-79.937 -282.775,-103.391 -296.456,-128.885C-316.638,-166.497 -329.391,-208.21 -334.278,-252.531C-294.198,-264.558 -229.159,-279.175 -147.853,-280.368C-74.959,-281.438 -26.412,-270.963 0,-262.936" style="fill:white;fill-rule:nonzero;"/>
                </g>
                <g transform="matrix(1,0,0,1,285.011,371.506)">
                    <path d="M0,-19.19L146.318,-49.034L77.467,29.844L0,-19.19Z" style="fill:rgb(8,43,71);fill-rule:nonzero;"/>
                </g>
                <g transform="matrix(-0.979732,0.200312,0.200312,0.979732,263.427,343.192)">
                    <path d="M-181.986,13.952L4.093,13.952L-2.4,-23.249L-186.663,-18.583L-181.986,13.952Z" style="fill:rgb(8,43,71);fill-rule:nonzero;"/>
                </g>
                <g transform="matrix(0.0368605,0.99932,0.99932,-0.0368605,373.255,294.252)">
                    <path d="M-52.12,-65.3L62.637,-65.3C65.122,-61.506 67.446,-57.785 69.627,-54.147L-53.589,-54.267L-52.12,-65.3Z" style="fill:rgb(234,96,54);fill-rule:nonzero;"/>
                </g>
                <g transform="matrix(0.038965,0.999241,0.999241,-0.038965,403.853,297.44)">
                    <path d="M-59.616,-72.895L71.938,-72.895C73.989,-69.141 75.886,-65.513 77.607,-62.057L-61.016,-62.211L-59.616,-72.895Z" style="fill:rgb(234,96,54);fill-rule:nonzero;"/>
                </g>
                <g transform="matrix(1,0,0,1,350.583,382.612)">
                    <path d="M0,-145.643L6.014,-0.217C7.753,0.48 9.452,1.149 11.061,1.758C12.766,0.211 14.563,-1.452 16.398,-3.169L10.287,-147.401L0,-145.643Z" style="fill:rgb(234,96,54);fill-rule:nonzero;"/>
                </g>
                <g transform="matrix(0.0431742,0.999068,0.999068,-0.0431742,446.228,289.727)">
                    <path d="M-59.544,-71.934L76.394,-71.934C73.424,-68.67 70.268,-65.289 66.938,-61.82L-60.816,-61.901L-59.544,-71.934Z" style="fill:rgb(234,96,54);fill-rule:nonzero;"/>
                </g>
                <g transform="matrix(0.0443009,0.999018,0.999018,-0.0443009,457.618,278.361)">
                    <path d="M-51.374,-63.06L67.157,-63.06C63.893,-59.847 60.488,-56.588 56.959,-53.305L-52.596,-53.33L-51.374,-63.06Z" style="fill:rgb(234,96,54);fill-rule:nonzero;"/>
                </g>
                <g transform="matrix(1,0,0,1,234.769,156.862)">
                    <path d="M0,-53.167C4.817,-45.596 7.171,-41.894 11.776,-34.65C20.519,-36.037 24.813,-36.675 33.25,-37.84C27.424,-32.347 24.499,-29.553 18.625,-23.872C22.894,-17.152 24.983,-13.861 29.073,-7.414C21.414,-10.397 17.493,-11.902 9.46,-14.939C3.471,-9.057 0.466,-6.069 -5.561,0C-4.75,-7.849 -4.339,-11.808 -3.506,-19.797C-12.279,-23.054 -16.776,-24.7 -25.999,-28.025C-16.31,-29.878 -11.549,-30.741 -2.194,-32.344C-1.329,-40.598 -0.89,-44.762 0,-53.167" style="fill:rgb(234,96,54);fill-rule:nonzero;"/>
                </g>
                <g transform="matrix(1,0,0,1,305.26,143.408)">
                    <path d="M0,-46.711C3.35,-39.712 4.99,-36.283 8.206,-29.558C15.284,-30.18 18.761,-30.446 25.588,-30.894C20.583,-26.426 18.065,-24.15 13.003,-19.518C16.003,-13.236 17.475,-10.154 20.36,-4.104C14.394,-7.321 11.341,-8.945 5.094,-12.226C-0.081,-7.418 -2.681,-4.973 -7.907,0C-6.741,-6.934 -6.152,-10.427 -4.962,-17.464C-11.748,-20.972 -15.223,-22.745 -22.34,-26.331C-14.505,-27.292 -10.656,-27.723 -3.096,-28.489C-1.87,-35.723 -1.251,-39.367 0,-46.711" style="fill:rgb(234,96,54);fill-rule:nonzero;"/>
                </g>
                <g transform="matrix(1,0,0,1,362.047,136.326)">
                    <path d="M0,-41.049C2.297,-34.617 3.424,-31.46 5.637,-25.256C11.384,-25.319 14.206,-25.315 19.746,-25.24C15.457,-21.602 13.296,-19.747 8.947,-15.966C11.024,-10.135 12.043,-7.27 14.046,-1.637C9.392,-4.953 7.013,-6.627 2.147,-10.008C-2.307,-6.078 -4.548,-4.076 -9.058,0C-7.713,-6.122 -7.035,-9.201 -5.668,-15.399C-10.93,-19.001 -13.621,-20.822 -19.13,-24.504C-12.776,-24.815 -9.657,-24.931 -3.531,-25.088C-2.129,-31.432 -1.423,-34.625 0,-41.049" style="fill:rgb(234,96,54);fill-rule:nonzero;"/>
                </g>
                <g transform="matrix(1,0,0,1,407.953,134.194)">
                    <path d="M0,-36.336C1.538,-30.44 2.293,-27.54 3.777,-21.834C8.456,-21.488 10.751,-21.288 15.258,-20.833C11.586,-17.868 9.735,-16.356 6.004,-13.267C7.404,-7.877 8.092,-5.224 9.445,0C5.814,-3.327 3.958,-5.006 0.166,-8.398C-3.66,-5.183 -5.587,-3.544 -9.471,-0.202C-8.057,-5.611 -7.345,-8.329 -5.914,-13.794C-9.998,-17.393 -12.086,-19.211 -16.357,-22.887C-11.192,-22.723 -8.656,-22.61 -3.678,-22.323C-2.216,-27.899 -1.48,-30.702 0,-36.336" style="fill:rgb(234,96,54);fill-rule:nonzero;"/>
                </g>
                <g transform="matrix(1,0,0,1,445.177,136.775)">
                    <path d="M0,-33.462C0.985,-28.059 1.469,-25.398 2.422,-20.155C6.238,-19.51 8.11,-19.166 11.783,-18.433C8.64,-16.019 7.053,-14.785 3.854,-12.264C4.755,-7.287 5.199,-4.835 6.072,0C3.244,-3.284 1.798,-4.941 -1.155,-8.285C-4.439,-5.657 -6.096,-4.315 -9.436,-1.575C-8.021,-6.363 -7.311,-8.768 -5.882,-13.597C-9.052,-17.133 -10.672,-18.919 -13.984,-22.526C-9.774,-22.015 -7.708,-21.734 -3.655,-21.124C-2.2,-26.038 -1.469,-28.505 0,-33.462" style="fill:rgb(234,96,54);fill-rule:nonzero;"/>
                </g>
                <g transform="matrix(1,0,0,1,391.48,183.397)">
                    <path d="M0,84.835L52.741,76.564L123.132,65.529L166.504,58.724L209.184,52.035L216.638,-13.147L233.426,-15.07L239.365,-57.047L180.179,-50.907L164.951,-49.32L159.797,-48.787L131.375,-45.843L80.781,-40.588L63.537,-38.806L56.35,-38.06L-7.714,-31.409L-7.764,-30.997L-8.024,-31.377L-82.748,-23.626L-82.748,-23.634L-163.103,-15.289L-233.199,-8.018L-356.593,4.786L-346.342,34.472L-352.329,69.339L-348.708,73.779L-342.037,81.589L-354.175,83.309L-363.864,141.882L-271.527,127.41L-261.991,116.85L-263.429,126.14L-209.443,117.674L-204.026,79.775L-179.722,85.264L-176.808,82.055L-171.443,87.113L-153.159,108.847L-95.178,99.756L-94.264,98.62L-94.392,99.638L-45.253,91.925L0,84.835Z" style="fill:rgb(8,43,71);fill-rule:nonzero;"/>
                </g>
                <g transform="matrix(1,0,0,1,187.505,264.308)">
                    <path d="M0,-64.004L22.973,-66.635L18.657,-41.094L-3.843,-38.219L0,-64.004ZM39.181,-88.545L-32.881,-81.071L-26.856,-61.579L-31.613,-30.966L-32.826,-23.177L-40.237,24.541L-12.459,20.186L-7.009,-17.9L29.463,-22.917L38.63,-33.045L43.891,-38.865L43.938,-39.196L49.042,-75.227L39.181,-88.545Z" style="fill:white;fill-rule:nonzero;"/>
                </g>
                <g transform="matrix(1,0,0,1,347.019,240.075)">
                    <path d="M0,-58.004L20.941,-60.398L17.586,-37.039L-2.308,-34.503L0,-58.004ZM36.267,-31.518L38.851,-34.747L43.379,-67.266L34.432,-80.363L-26.257,-74.07L-21.272,-59.24L-25.501,-24.784L-25.848,-21.949L-31.274,22.359L-7.923,18.697L-3.528,-15.704L1.047,-16.334L13.231,15.381L38.268,11.452L27.336,-20.351L35.377,-30.4L36.267,-31.518Z" style="fill:white;fill-rule:nonzero;"/>
                </g>
                <g transform="matrix(1,0,0,1,463.113,247.604)">
                    <path d="M0,-96.366L-0.89,-78.709L-21.674,-76.323L-25.958,-45.497L-26.037,-44.907L-31.818,-3.292L-52.806,0L-47.16,-42.56L-47.151,-42.607L-43.001,-73.889L-66.101,-71.251L-63.903,-89.735L0,-96.366Z" style="fill:white;fill-rule:nonzero;"/>
                </g>
                <g transform="matrix(1,0,0,1,511.572,188.718)">
                    <path d="M0,5.86L11.64,41.182L-9.829,44.553L-20.225,10.947L-24.611,11.901L-28.25,47.443L-48.538,50.625L-43.237,10.569L-43.04,9.057L-39.071,-20.996L-43.631,-37.984L-17.358,-40.709L-21.823,-5.772L-17.421,-6.324L-0.26,-42.481L21.721,-44.765L-1.788,0.465L-0.866,3.237L0,5.86Z" style="fill:rgb(234,96,54);fill-rule:nonzero;"/>
                </g>
                <g transform="matrix(-0.129845,0.991534,0.991534,0.129845,546.721,233.376)">
                    <path d="M-17.403,2.892L-7.514,2.892L-2.538,-15.273L-12.989,-15.164C-14.469,-9.139 -15.923,-3.126 -17.403,2.892" style="fill:rgb(234,96,54);fill-rule:nonzero;"/>
                </g>
                <g transform="matrix(-0.133447,0.991056,0.991056,0.133447,588.375,227.247)">
                    <path d="M-15.818,2.86L-7.141,2.86L-2.501,-13.831L-11.672,-13.826C-13.05,-8.258 -14.434,-2.699 -15.818,2.86" style="fill:rgb(234,96,54);fill-rule:nonzero;"/>
                </g>
                <g transform="matrix(-0.130725,0.991419,0.991419,0.130725,546.706,223.167)">
                    <path d="M-15.771,4.227L-8.121,4.227C-6.653,-1.784 -5.177,-7.801 -3.706,-13.828L-11.358,-13.757C-12.832,-7.755 -14.306,-1.768 -15.771,4.227" style="fill:rgb(234,96,54);fill-rule:nonzero;"/>
                </g>
                <g transform="matrix(-0.135113,0.99083,0.99083,0.135113,588.868,217.89)">
                    <path d="M-14.967,3.614L-7.329,3.614C-5.935,-1.943 -4.549,-7.5 -3.155,-13.065L-10.799,-13.074C-12.195,-7.509 -13.582,-1.944 -14.967,3.614" style="fill:rgb(234,96,54);fill-rule:nonzero;"/>
                </g>
                <g transform="matrix(-0.129886,0.991529,0.991529,0.129886,548.874,205.82)">
                    <path d="M-15.435,4.346L-8.159,4.346C-6.703,-1.612 -5.255,-7.578 -3.813,-13.545L-11.114,-13.476C-12.56,-7.526 -14.005,-1.591 -15.435,4.346" style="fill:rgb(234,96,54);fill-rule:nonzero;"/>
                </g>
                <g transform="matrix(-0.134499,0.990914,0.990914,0.134499,591.001,200.674)">
                    <path d="M-14.744,3.813L-7.48,3.813C-6.097,-1.745 -4.715,-7.304 -3.331,-12.878L-10.611,-12.88C-11.986,-7.313 -13.361,-1.753 -14.744,3.813" style="fill:rgb(234,96,54);fill-rule:nonzero;"/>
                </g>
                <g transform="matrix(-0.129141,0.991626,0.991626,0.129141,547.645,214.438)">
                    <path d="M-15.405,4.448L-8.273,4.448C-6.81,-1.54 -5.355,-7.531 -3.906,-13.529L-11.056,-13.459C-12.509,-7.485 -13.953,-1.519 -15.405,4.448" style="fill:rgb(234,96,54);fill-rule:nonzero;"/>
                </g>
                <g transform="matrix(-0.134662,0.990892,0.990892,0.134662,589.769,209.229)">
                    <path d="M-14.662,3.881L-7.533,3.881C-6.158,-1.671 -4.765,-7.237 -3.389,-12.804L-10.51,-12.802C-11.895,-7.236 -13.279,-1.677 -14.662,3.881" style="fill:rgb(234,96,54);fill-rule:nonzero;"/>
                </g>
                <g transform="matrix(0.415728,0.909489,0.909489,-0.415728,538.797,180.194)">
                    <path d="M9.552,-6.136C11.479,-0.335 13.407,5.454 15.334,11.243L9.552,14.868C7.63,9.1 5.703,3.323 3.782,-2.456L9.552,-6.136Z" style="fill:rgb(234,96,54);fill-rule:nonzero;"/>
                </g>
                <g transform="matrix(0.431576,0.902077,0.902077,-0.431576,581.116,176.259)">
                    <path d="M9.004,-5.673C10.907,-0.263 12.813,5.14 14.709,10.543L9.004,14.288C7.095,8.888 5.193,3.488 3.285,-1.923L9.004,-5.673Z" style="fill:rgb(234,96,54);fill-rule:nonzero;"/>
                </g>
                <g transform="matrix(0.406567,0.913621,0.913621,-0.406567,540.205,171.397)">
                    <path d="M9.492,-6.165C11.356,-0.375 13.218,5.416 15.083,11.194L9.492,14.613C7.633,8.857 5.775,3.088 3.916,-2.681L9.492,-6.165Z" style="fill:rgb(234,96,54);fill-rule:nonzero;"/>
                </g>
                <g transform="matrix(0.420491,0.907297,0.907297,-0.420491,582.508,167.417)">
                    <path d="M8.989,-5.741C10.829,-0.305 12.66,5.12 14.5,10.546L8.989,14.073C7.144,8.646 5.306,3.221 3.46,-2.217L8.989,-5.741Z" style="fill:rgb(234,96,54);fill-rule:nonzero;"/>
                </g>
                <g transform="matrix(0.388288,0.921538,0.921538,-0.388288,542.994,154.025)">
                    <path d="M9.374,-6.222C11.113,-0.463 12.853,5.305 14.589,11.062L9.374,14.121C7.638,8.378 5.909,2.631 4.176,-3.117L9.374,-6.222Z" style="fill:rgb(234,96,54);fill-rule:nonzero;"/>
                </g>
                <g transform="matrix(1,0,0,1,584.192,158.528)">
                    <path d="M0,-3.779L0.026,-3.78L-0.391,-0.711L-0.756,2.013C4.942,1.407 10.644,0.798 16.34,0.188L16.623,-1.9L17.138,-5.792C11.439,-5.188 5.735,-4.578 0.026,-3.969L0,-3.779Z" style="fill:rgb(234,96,54);fill-rule:nonzero;"/>
                </g>
                <g transform="matrix(0.394161,0.919042,0.919042,-0.394161,541.673,162.644)">
                    <path d="M9.425,-6.213C11.207,-0.427 12.983,5.351 14.767,11.124L9.425,14.297C7.653,8.542 5.876,2.779 4.105,-2.988L9.425,-6.213Z" style="fill:rgb(234,96,54);fill-rule:nonzero;"/>
                </g>
                <g transform="matrix(0.406488,0.913656,0.913656,-0.406488,583.942,158.639)">
                    <path d="M8.966,-5.824C10.721,-0.364 12.479,5.089 14.239,10.546L8.966,13.802C7.204,8.353 5.446,2.897 3.677,-2.561L8.966,-5.824Z" style="fill:rgb(234,96,54);fill-rule:nonzero;"/>
                </g>
                <g transform="matrix(0.376272,0.926509,0.926509,-0.376272,543.724,145.69)">
                    <path d="M9.087,-5.784C10.777,0.089 12.465,5.963 14.159,11.833L9.087,14.714C7.208,8.178 5.327,1.64 3.447,-4.911L9.087,-5.784Z" style="fill:rgb(234,96,54);fill-rule:nonzero;"/>
                </g>
                <g transform="matrix(0.205408,0.978677,0.978677,-0.205408,581.556,122.295)">
                    <path d="M27.491,-22.32C29.328,-4.259 31.156,13.754 32.978,31.741L27.491,33.86C25.664,15.81 23.829,-2.282 21.989,-20.411L27.491,-22.32Z" style="fill:rgb(234,96,54);fill-rule:nonzero;"/>
                </g>
                <g transform="matrix(0.304939,0.952372,0.952372,-0.304939,543.686,135.28)">
                    <path d="M10.661,-7.544C12.122,-0.498 13.585,6.53 15.036,13.561L10.661,15.621L6.064,-7.189L10.661,-7.544Z" style="fill:rgb(234,96,54);fill-rule:nonzero;"/>
                </g>
                <g transform="matrix(-0.125931,0.992039,0.992039,0.125931,596.865,112.606)">
                    <path d="M31.008,-26.071L35.876,-26.071C31.671,-8.301 27.489,9.436 23.316,27.132L18.103,27.32L31.008,-26.071Z" style="fill:rgb(234,96,54);fill-rule:nonzero;"/>
                </g>
                <g transform="matrix(1,0,0,1,114.569,269.616)">
                    <path d="M0,-50.679L0.669,-60.39L-22.406,-57.736L-25.69,-35.826L13.191,-40.701L18.775,-33.818L24.068,-27.297L23.926,-26.249L19.405,5.915L3.189,23.863L-35.511,29.928L-67.558,34.952L-62.21,2.654L-32.7,-1.519L-34.149,7.467L-32.117,7.175L-8.569,3.741L-6.49,-18.24L-28.762,-15.223L-46.64,-12.805L-49.467,-16.113L-57.508,-25.501L-57.658,-25.682L-57.91,-25.981L-52.342,-58.389L-58.469,-76.157L-35.11,-78.583L-19.051,-80.244L32.817,-85.631L27.73,-54.318L0,-50.679Z" style="fill:white;fill-rule:nonzero;"/>
                </g>
                <g transform="matrix(1,0,0,1,287.274,217.74)">
                    <path d="M0,5.072L-3.3,29.849L-24.541,32.952L-21.516,12.325L-21.508,12.325L-20.815,7.947L-20.106,3.473L-15.279,-27.092L4.591,-29.36L0.512,1.229L0,5.072ZM19.784,-50.317L-12.585,-46.962L-25.289,-45.639L-25.935,-45.576L-45.301,-43.56L-40.536,-28.447L-45.057,6.19L-45.734,11.396L-49.9,43.316L-39.749,55.389L6.411,48.152L19.91,31.274L23.824,1.788L24.241,-1.362L29.077,-37.834L19.784,-50.317Z" style="fill:white;fill-rule:nonzero;"/>
                </g>
                <g transform="matrix(1,0,0,1,133.345,304.569)">
                    <path d="M0,-68.77L5.292,-62.249L5.15,-61.201L0.63,-29.037L-15.586,-11.089L-54.287,-5.024L-86.333,0L-80.985,-32.298L-51.475,-36.472L-52.924,-27.486L-50.893,-27.777L-27.344,-31.211L-25.265,-53.192L-47.538,-50.175L-65.415,-47.758L-68.242,-51.065L-76.284,-60.453L0,-68.77Z" style="fill:rgb(204,204,204);fill-rule:nonzero;"/>
                </g>
                <g transform="matrix(1,0,0,1,155.893,280.619)">
                    <path d="M0,-47.277L75.551,-55.507L75.504,-55.176L70.243,-49.356L61.076,-39.228L24.604,-34.211L19.153,3.875L-8.624,8.23L-1.213,-39.488L0,-47.277Z" style="fill:rgb(204,204,204);fill-rule:nonzero;"/>
                </g>
                <g transform="matrix(1,0,0,1,311.515,273.129)">
                    <path d="M0,-56.751L-0.417,-53.601L-4.332,-24.115L-17.831,-7.237L-63.99,0L-74.141,-12.073L-69.975,-43.993L-69.298,-49.199L-44.348,-51.916L-45.057,-47.442L-45.75,-43.063L-45.757,-43.063L-48.782,-22.437L-27.541,-25.54L-24.241,-50.317L-23.729,-54.16L0,-56.751Z" style="fill:rgb(204,204,204);fill-rule:nonzero;"/>
                </g>
                <g transform="matrix(1,0,0,1,374.354,251.268)">
                    <path d="M0,-31.543L10.932,0.259L-14.105,4.189L-26.289,-27.526L-30.864,-26.896L-35.259,7.504L-58.61,11.167L-53.184,-33.142L-52.837,-35.977L8.931,-42.71L8.041,-41.592L0,-31.543Z" style="fill:rgb(204,204,204);fill-rule:nonzero;"/>
                </g>
                <g transform="matrix(1,0,0,1,415.962,245.305)">
                    <path d="M0,-40.307L21.114,-42.607L15.333,-0.992L-5.655,2.3L-0.008,-40.26L0,-40.307Z" style="fill:rgb(204,204,204);fill-rule:nonzero;"/>
                </g>
                <g transform="matrix(1,0,0,1,511.572,239.343)">
                    <path d="M0,-44.765L11.64,-9.443L-9.829,-6.072L-20.225,-39.678L-24.611,-38.724L-28.25,-3.182L-48.538,0L-43.237,-40.056L0,-44.765Z" style="fill:rgb(204,78,50);fill-rule:nonzero;"/>
                </g>
                <g transform="matrix(-0.411977,0.911194,0.911194,0.411977,549.17,216.649)">
                    <path d="M8.22,-13.622C5.056,-8.285 1.919,-2.954 -1.243,2.376L8.22,5.246L18.254,-10.693L8.22,-13.622Z" style="fill:rgb(204,78,50);fill-rule:nonzero;"/>
                </g>
                <g transform="matrix(-0.304299,0.952577,0.952577,0.304299,548.502,205.473)">
                    <path d="M8.661,-11.877C6.146,-6.232 3.636,-0.6 1.132,5.04L8.661,6.394C11.17,0.739 13.689,-4.921 16.203,-10.592L8.661,-11.877Z" style="fill:rgb(204,78,50);fill-rule:nonzero;"/>
                </g>
                <g transform="matrix(-0.279892,0.960032,0.960032,0.279892,549.252,196.671)">
                    <path d="M8.649,-11.567C6.296,-5.888 3.952,-0.213 1.601,5.459L8.649,6.554C11.014,0.862 13.372,-4.833 15.724,-10.539L8.649,-11.567Z" style="fill:rgb(204,78,50);fill-rule:nonzero;"/>
                </g>
                <g transform="matrix(-0.290338,0.956924,0.956924,0.290338,550.579,188.207)">
                    <path d="M8.591,-11.631C6.189,-5.997 3.794,-0.379 1.413,5.244L8.591,6.434C11.002,0.795 13.406,-4.854 15.803,-10.504L8.591,-11.631Z" style="fill:rgb(204,78,50);fill-rule:nonzero;"/>
                </g>
                <g transform="matrix(-0.388538,0.921433,0.921433,0.388538,590.563,211.529)">
                    <path d="M7.692,-12.31C4.903,-7.298 2.11,-2.296 -0.682,2.706L7.692,4.98L16.543,-9.912L7.692,-12.31Z" style="fill:rgb(204,78,50);fill-rule:nonzero;"/>
                </g>
                <g transform="matrix(-0.334053,0.942554,0.942554,0.334053,590.782,201.65)">
                    <path d="M8.036,-11.378C5.537,-6.215 3.046,-1.048 0.557,4.111L8.036,5.667C10.531,0.511 13.02,-4.649 15.518,-9.812L8.036,-11.378Z" style="fill:rgb(204,78,50);fill-rule:nonzero;"/>
                </g>
                <g transform="matrix(-0.306741,0.951793,0.951793,0.306741,591.507,192.806)">
                    <path d="M8.068,-11.067C5.727,-5.83 3.388,-0.602 1.049,4.627L8.068,5.879C10.397,0.656 12.746,-4.578 15.08,-9.817L8.068,-11.067Z" style="fill:rgb(204,78,50);fill-rule:nonzero;"/>
                </g>
                <g transform="matrix(-0.134499,0.990914,0.990914,0.134499,591.001,200.674)">
                    <path d="M-14.744,3.813L-7.48,3.813C-6.097,-1.745 -4.715,-7.304 -3.331,-12.878L-10.611,-12.88C-11.986,-7.313 -13.361,-1.753 -14.744,3.813" style="fill:rgb(204,78,50);fill-rule:nonzero;"/>
                </g>
                <g transform="matrix(-0.98801,0.154389,0.154389,0.98801,499.995,285.687)">
                    <path d="M-9.874,7.91L2.66,7.91L-0.528,-0.822L-13.148,-0.767L-9.874,7.91Z" style="fill:white;fill-rule:nonzero;"/>
                </g>
                <g transform="matrix(1,0,0,1,535.414,284.359)">
                    <path d="M0,-23.71L-11.954,-22.008L-10.463,-28.958L1.558,-30.629L0,-23.71ZM-4.512,-3.665C-4.805,-2.361 -4.334,-2.143 -2.959,-2.354L-4.515,4.505L-19.966,6.919L-18.499,0.022C-17.225,-0.172 -16.554,-0.566 -16.273,-1.876L-14.496,-10.156C-14.199,-11.54 -14.756,-11.707 -16.042,-11.518L-14.634,-18.135L-0.806,-20.128L-4.512,-3.665Z" style="fill:white;fill-rule:nonzero;"/>
                </g>
                <g transform="matrix(1,0,0,1,552.483,259.032)">
                    <path d="M0,19.337L2.368,9.656C2.065,9.262 1.321,9.274 0.256,9.431C-1.404,9.676 -2.285,10.247 -2.784,12.321L-4.173,18.1C-4.677,20.195 -4.02,20.525 -2.375,20.274C-1.318,20.112 -0.52,19.847 0,19.337M-14.006,12.569C-12.392,5.556 -9.477,3.54 -3.467,2.675C-0.595,2.261 1.704,2.278 4.024,2.884L4.778,-0.2C5.119,-1.592 4.526,-1.758 3.273,-1.58L4.865,-8.135L18.397,-10.016L11.614,16.612C11.286,17.9 11.673,18.126 13.004,17.922L11.267,24.7L-0.356,26.516L-0.012,24.431C-2.392,26.361 -4.965,27.708 -9.59,28.432C-15.476,29.353 -17.595,28.162 -16.015,21.298L-14.006,12.569Z" style="fill:white;fill-rule:nonzero;"/>
                </g>
            </g>
            <g transform="matrix(0.338162,0,0,0.338162,-984.889,81.1118)">
                <g transform="matrix(59.2691,0,0,59.2691,4414.91,233.841)">
                    <path d="M0.307,0.006C0.255,0.006 0.205,-0.002 0.158,-0.019C0.11,-0.036 0.073,-0.058 0.047,-0.085L0.076,-0.142C0.101,-0.117 0.135,-0.096 0.177,-0.081C0.219,-0.065 0.262,-0.057 0.307,-0.057C0.37,-0.057 0.417,-0.069 0.448,-0.092C0.479,-0.115 0.495,-0.144 0.495,-0.181C0.495,-0.209 0.487,-0.231 0.469,-0.248C0.453,-0.265 0.432,-0.278 0.407,-0.286C0.382,-0.296 0.348,-0.305 0.304,-0.316C0.251,-0.329 0.209,-0.342 0.178,-0.355C0.147,-0.367 0.12,-0.386 0.098,-0.411C0.075,-0.436 0.064,-0.471 0.064,-0.514C0.064,-0.549 0.073,-0.582 0.092,-0.611C0.111,-0.64 0.139,-0.663 0.178,-0.68C0.217,-0.697 0.265,-0.706 0.322,-0.706C0.362,-0.706 0.401,-0.701 0.44,-0.69C0.478,-0.679 0.511,-0.663 0.539,-0.644L0.514,-0.585C0.485,-0.604 0.453,-0.619 0.42,-0.628C0.387,-0.638 0.354,-0.643 0.322,-0.643C0.261,-0.643 0.215,-0.631 0.184,-0.608C0.153,-0.584 0.137,-0.553 0.137,-0.516C0.137,-0.488 0.146,-0.466 0.163,-0.449C0.18,-0.432 0.201,-0.419 0.227,-0.409C0.252,-0.401 0.287,-0.391 0.33,-0.38C0.381,-0.367 0.423,-0.355 0.455,-0.343C0.486,-0.33 0.513,-0.312 0.535,-0.286C0.557,-0.262 0.568,-0.228 0.568,-0.185C0.568,-0.15 0.559,-0.117 0.54,-0.089C0.521,-0.059 0.491,-0.037 0.452,-0.02C0.413,-0.003 0.364,0.006 0.307,0.006Z" style="fill:rgb(51,51,51);fill-rule:nonzero;"/>
                </g>
                <g transform="matrix(59.2691,0,0,59.2691,4451.36,233.841)">
                    <path d="M0.37,-0.53C0.419,-0.53 0.464,-0.519 0.504,-0.497C0.544,-0.474 0.575,-0.443 0.598,-0.402C0.621,-0.361 0.632,-0.315 0.632,-0.263C0.632,-0.21 0.621,-0.164 0.598,-0.123C0.575,-0.082 0.544,-0.051 0.504,-0.029C0.465,-0.006 0.42,0.005 0.37,0.005C0.327,0.005 0.289,-0.004 0.255,-0.021C0.22,-0.039 0.192,-0.065 0.17,-0.099L0.17,0.194L0.099,0.194L0.099,-0.526L0.167,-0.526L0.167,-0.422C0.188,-0.457 0.217,-0.483 0.252,-0.502C0.286,-0.521 0.326,-0.53 0.37,-0.53ZM0.365,-0.058C0.402,-0.058 0.435,-0.067 0.465,-0.084C0.495,-0.101 0.519,-0.125 0.536,-0.156C0.553,-0.187 0.561,-0.223 0.561,-0.263C0.561,-0.303 0.553,-0.339 0.536,-0.37C0.519,-0.401 0.495,-0.425 0.465,-0.442C0.435,-0.459 0.402,-0.468 0.365,-0.468C0.328,-0.468 0.294,-0.459 0.265,-0.442C0.235,-0.425 0.212,-0.401 0.195,-0.37C0.178,-0.339 0.169,-0.303 0.169,-0.263C0.169,-0.223 0.178,-0.187 0.195,-0.156C0.212,-0.125 0.235,-0.101 0.265,-0.084C0.294,-0.067 0.328,-0.058 0.365,-0.058Z" style="fill:rgb(51,51,51);fill-rule:nonzero;"/>
                </g>
                <g transform="matrix(59.2691,0,0,59.2691,4491.54,233.841)">
                    <path d="M0.314,0.005C0.263,0.005 0.218,-0.007 0.177,-0.029C0.136,-0.053 0.104,-0.084 0.081,-0.125C0.058,-0.166 0.046,-0.212 0.046,-0.263C0.046,-0.314 0.058,-0.36 0.081,-0.401C0.104,-0.442 0.136,-0.473 0.177,-0.496C0.218,-0.519 0.263,-0.53 0.314,-0.53C0.365,-0.53 0.41,-0.519 0.451,-0.496C0.492,-0.473 0.524,-0.442 0.547,-0.401C0.57,-0.36 0.581,-0.314 0.581,-0.263C0.581,-0.212 0.57,-0.166 0.547,-0.125C0.524,-0.084 0.492,-0.053 0.451,-0.029C0.41,-0.007 0.365,0.005 0.314,0.005ZM0.314,-0.058C0.351,-0.058 0.385,-0.067 0.414,-0.084C0.444,-0.101 0.467,-0.125 0.484,-0.156C0.501,-0.187 0.509,-0.223 0.509,-0.263C0.509,-0.303 0.501,-0.339 0.484,-0.37C0.467,-0.401 0.444,-0.426 0.414,-0.443C0.385,-0.46 0.351,-0.468 0.314,-0.468C0.277,-0.468 0.243,-0.46 0.214,-0.443C0.184,-0.426 0.161,-0.401 0.143,-0.37C0.127,-0.339 0.118,-0.303 0.118,-0.263C0.118,-0.223 0.127,-0.187 0.143,-0.156C0.161,-0.125 0.184,-0.101 0.214,-0.084C0.243,-0.067 0.277,-0.058 0.314,-0.058Z" style="fill:rgb(51,51,51);fill-rule:nonzero;"/>
                </g>
                <g transform="matrix(59.2691,0,0,59.2691,4528.7,233.841)">
                    <path d="M0.167,-0.423C0.184,-0.458 0.209,-0.485 0.242,-0.503C0.275,-0.521 0.315,-0.53 0.364,-0.53L0.364,-0.461L0.347,-0.462C0.292,-0.462 0.248,-0.445 0.217,-0.411C0.186,-0.377 0.17,-0.329 0.17,-0.268L0.17,0L0.099,0L0.099,-0.526L0.167,-0.526L0.167,-0.423Z" style="fill:rgb(51,51,51);fill-rule:nonzero;"/>
                </g>
                <g transform="matrix(59.2691,0,0,59.2691,4553.36,233.841)">
                    <path d="M0.376,-0.032C0.363,-0.02 0.346,-0.011 0.327,-0.005C0.307,0.002 0.286,0.005 0.265,0.005C0.216,0.005 0.178,-0.008 0.151,-0.035C0.124,-0.062 0.111,-0.099 0.111,-0.148L0.111,-0.466L0.017,-0.466L0.017,-0.526L0.111,-0.526L0.111,-0.641L0.182,-0.641L0.182,-0.526L0.342,-0.526L0.342,-0.466L0.182,-0.466L0.182,-0.152C0.182,-0.121 0.19,-0.097 0.205,-0.081C0.221,-0.064 0.244,-0.056 0.273,-0.056C0.288,-0.056 0.302,-0.058 0.316,-0.063C0.329,-0.068 0.341,-0.074 0.351,-0.083L0.376,-0.032Z" style="fill:rgb(51,51,51);fill-rule:nonzero;"/>
                </g>
                <g transform="matrix(59.2691,0,0,59.2691,4577.42,233.841)">
                    <path d="M0.331,-0.329L0.188,-0.184L0.188,0L0.114,0L0.114,-0.7L0.188,-0.7L0.188,-0.277L0.599,-0.7L0.684,-0.7L0.381,-0.383L0.705,0L0.617,0L0.331,-0.329Z" style="fill:rgb(51,51,51);fill-rule:nonzero;"/>
                </g>
                <g transform="matrix(59.2691,0,0,59.2691,4618.97,233.841)">
                    <path d="M0.099,-0.526L0.17,-0.526L0.17,0L0.099,0L0.099,-0.526ZM0.135,-0.641C0.12,-0.641 0.108,-0.646 0.098,-0.656C0.088,-0.666 0.083,-0.678 0.083,-0.692C0.083,-0.705 0.088,-0.717 0.098,-0.727C0.108,-0.737 0.12,-0.742 0.135,-0.742C0.15,-0.742 0.162,-0.737 0.172,-0.728C0.182,-0.718 0.187,-0.706 0.187,-0.693C0.187,-0.678 0.182,-0.666 0.172,-0.656C0.162,-0.646 0.15,-0.641 0.135,-0.641Z" style="fill:rgb(51,51,51);fill-rule:nonzero;"/>
                </g>
                <g transform="matrix(59.2691,0,0,59.2691,4634.91,233.841)">
                    <path d="M0.376,-0.032C0.363,-0.02 0.346,-0.011 0.327,-0.005C0.307,0.002 0.286,0.005 0.265,0.005C0.216,0.005 0.178,-0.008 0.151,-0.035C0.124,-0.062 0.111,-0.099 0.111,-0.148L0.111,-0.466L0.017,-0.466L0.017,-0.526L0.111,-0.526L0.111,-0.641L0.182,-0.641L0.182,-0.526L0.342,-0.526L0.342,-0.466L0.182,-0.466L0.182,-0.152C0.182,-0.121 0.19,-0.097 0.205,-0.081C0.221,-0.064 0.244,-0.056 0.273,-0.056C0.288,-0.056 0.302,-0.058 0.316,-0.063C0.329,-0.068 0.341,-0.074 0.351,-0.083L0.376,-0.032Z" style="fill:rgb(51,51,51);fill-rule:nonzero;"/>
                </g>
                <g transform="matrix(59.2691,0,0,59.2691,4414.91,293.11)">
                    <path d="M0.544,-0.15L0.219,-0.15L0.157,0L-0.009,0L0.303,-0.7L0.463,-0.7L0.776,0L0.606,0L0.544,-0.15ZM0.493,-0.273L0.382,-0.541L0.271,-0.273L0.493,-0.273Z" style="fill:rgb(234,96,54);fill-rule:nonzero;"/>
                </g>
                <g transform="matrix(59.2691,0,0,59.2691,4460.01,293.11)">
                    <path d="M0.419,-0.026C0.404,-0.015 0.385,-0.006 0.363,-0.001C0.34,0.005 0.317,0.008 0.292,0.008C0.228,0.008 0.179,-0.008 0.143,-0.041C0.109,-0.074 0.091,-0.122 0.091,-0.185L0.091,-0.406L0.008,-0.406L0.008,-0.526L0.091,-0.526L0.091,-0.657L0.247,-0.657L0.247,-0.526L0.381,-0.526L0.381,-0.406L0.247,-0.406L0.247,-0.187C0.247,-0.164 0.253,-0.147 0.265,-0.135C0.276,-0.122 0.293,-0.116 0.314,-0.116C0.339,-0.116 0.36,-0.123 0.377,-0.136L0.419,-0.026Z" style="fill:rgb(234,96,54);fill-rule:nonzero;"/>
                </g>
                <g transform="matrix(59.2691,0,0,59.2691,4485.79,293.11)">
                    <rect x="0.072" y="-0.742" width="0.156" height="0.742" style="fill:rgb(234,96,54);fill-rule:nonzero;"/>
                </g>
                <g transform="matrix(59.2691,0,0,59.2691,4503.63,293.11)">
                    <path d="M0.599,-0.267C0.599,-0.265 0.598,-0.251 0.596,-0.225L0.189,-0.225C0.196,-0.192 0.214,-0.165 0.241,-0.146C0.268,-0.127 0.302,-0.117 0.343,-0.117C0.371,-0.117 0.396,-0.121 0.418,-0.13C0.439,-0.138 0.459,-0.151 0.478,-0.169L0.561,-0.079C0.51,-0.021 0.436,0.008 0.339,0.008C0.278,0.008 0.225,-0.004 0.178,-0.028C0.131,-0.051 0.095,-0.084 0.07,-0.126C0.045,-0.168 0.032,-0.216 0.032,-0.269C0.032,-0.322 0.045,-0.369 0.07,-0.411C0.095,-0.454 0.129,-0.487 0.172,-0.51C0.216,-0.534 0.265,-0.546 0.319,-0.546C0.372,-0.546 0.419,-0.535 0.462,-0.512C0.505,-0.489 0.538,-0.457 0.563,-0.414C0.587,-0.372 0.599,-0.323 0.599,-0.267ZM0.32,-0.428C0.285,-0.428 0.255,-0.418 0.231,-0.398C0.207,-0.378 0.192,-0.351 0.187,-0.316L0.452,-0.316C0.447,-0.35 0.432,-0.377 0.408,-0.398C0.384,-0.418 0.355,-0.428 0.32,-0.428Z" style="fill:rgb(234,96,54);fill-rule:nonzero;"/>
                </g>
                <g transform="matrix(59.2691,0,0,59.2691,4541.03,293.11)">
                    <path d="M0.419,-0.026C0.404,-0.015 0.385,-0.006 0.363,-0.001C0.34,0.005 0.317,0.008 0.292,0.008C0.228,0.008 0.179,-0.008 0.143,-0.041C0.109,-0.074 0.091,-0.122 0.091,-0.185L0.091,-0.406L0.008,-0.406L0.008,-0.526L0.091,-0.526L0.091,-0.657L0.247,-0.657L0.247,-0.526L0.381,-0.526L0.381,-0.406L0.247,-0.406L0.247,-0.187C0.247,-0.164 0.253,-0.147 0.265,-0.135C0.276,-0.122 0.293,-0.116 0.314,-0.116C0.339,-0.116 0.36,-0.123 0.377,-0.136L0.419,-0.026Z" style="fill:rgb(234,96,54);fill-rule:nonzero;"/>
                </g>
            </g>
        </g>
    </g>
    <defs>
        <linearGradient id="_Linear1" x1="0" y1="0" x2="1" y2="0" gradientUnits="userSpaceOnUse" gradientTransform="matrix(1,0,0,1,0,-0.0173729)"><stop offset="0" style="stop-color:rgb(204,204,204);stop-opacity:1"/><stop offset="1" style="stop-color:rgb(153,153,153);stop-opacity:1"/></linearGradient>
    </defs>
</svg>
