<?xml version="1.0" encoding="UTF-8" standalone="no"?>
<!DOCTYPE svg PUBLIC "-//W3C//DTD SVG 1.1//EN" "http://www.w3.org/Graphics/SVG/1.1/DTD/svg11.dtd">
<svg width="100%" height="100%" viewBox="0 0 400 400" version="1.1" xmlns="http://www.w3.org/2000/svg" xmlns:xlink="http://www.w3.org/1999/xlink" xml:space="preserve" xmlns:serif="http://www.serif.com/" style="fill-rule:evenodd;clip-rule:evenodd;stroke-linejoin:round;stroke-miterlimit:2;">
    <rect id="Artboard1" x="0" y="0" width="400" height="400" style="fill:none;"/>
    <g id="Artboard11" serif:id="Artboard1">
        <rect x="0" y="0" width="400" height="400" style="fill:rgb(248,250,251);"/>
        <g transform="matrix(1.21495,0,0,1.21495,-42.9902,-42.9902)">
            <g transform="matrix(2.14314,0,0,2.14314,92.95,92.8429)">
                <path d="M13.2,28.7L13.2,82.4C13.2,87.5 17.3,91.6 22.4,91.6L67.1,91.6C72.2,91.6 76.3,87.5 76.3,82.4L76.3,80.5L77.5,80.5C82.6,80.5 86.7,76.4 86.7,71.3L86.7,17.6C86.7,12.5 82.6,8.4 77.5,8.4L32.9,8.4C27.8,8.4 23.7,12.5 23.7,17.6L23.7,19.5L22.5,19.5C17.3,19.5 13.2,23.6 13.2,28.7ZM19.9,28.7C19.9,27.3 21,26.2 22.4,26.2L67.1,26.2C68.5,26.2 69.6,27.3 69.6,28.7L69.6,82.4C69.6,83.8 68.5,84.9 67.1,84.9L22.4,84.9C21,84.9 19.9,83.8 19.9,82.4L19.9,28.7Z" style="fill:rgb(219,224,228);fill-rule:nonzero;"/>
            </g>
            <g transform="matrix(1.4784,0,0,1.4784,112.471,128.211)">
                <path d="M27.5,62.4L75.835,62.4C77.735,62.4 79.235,63.9 79.235,65.8C79.235,67.7 77.735,69.2 75.835,69.2L27.5,69.2C25.6,69.2 24.1,67.7 24.1,65.8C24.1,63.9 25.6,62.4 27.5,62.4Z" style="fill:rgb(219,224,228);fill-rule:nonzero;"/>
            </g>
            <g transform="matrix(1.4784,0,0,1.4784,112.471,130.532)">
                <path d="M27.5,72.7L75.835,72.7C77.735,72.7 79.235,74.2 79.235,76.1C79.235,78 77.735,79.5 75.835,79.5L27.5,79.5C25.6,79.5 24.1,78 24.1,76.1C24.1,74.2 25.6,72.7 27.5,72.7Z" style="fill:rgb(219,224,228);fill-rule:nonzero;"/>
            </g>
            <g transform="matrix(1.4784,0,0,1.4784,112.471,148.08)">
                <path d="M27.5,72.7L75.835,72.7C77.735,72.7 79.235,74.2 79.235,76.1C79.235,78 77.735,79.5 75.835,79.5L27.5,79.5C25.6,79.5 24.1,78 24.1,76.1C24.1,74.2 25.6,72.7 27.5,72.7Z" style="fill:rgb(219,224,228);fill-rule:nonzero;"/>
            </g>
            <g transform="matrix(1.7528,0,0,1.7528,84.3599,108.921)">
                <path d="M65.8,49.6L65.8,38.6C65.8,33.5 61.7,29.4 56.6,29.4L45.6,29.4C40.5,29.4 36.4,33.5 36.4,38.6L36.4,49.6C36.4,54.7 40.5,58.8 45.6,58.8L56.6,58.8C61.6,58.8 65.8,54.7 65.8,49.6ZM59.1,49.6C59.1,51 58,52.1 56.6,52.1L45.6,52.1C44.2,52.1 43.1,51 43.1,49.6L43.1,38.6C43.1,37.2 44.2,36.1 45.6,36.1L56.6,36.1C58,36.1 59.1,37.2 59.1,38.6L59.1,49.6Z" style="fill:rgb(219,224,228);fill-rule:nonzero;"/>
            </g>
        </g>
    </g>
</svg>
