<?xml version="1.0" encoding="UTF-8" standalone="no"?>
<!DOCTYPE svg PUBLIC "-//W3C//DTD SVG 1.1//EN" "http://www.w3.org/Graphics/SVG/1.1/DTD/svg11.dtd">
<svg width="100%" height="100%" viewBox="0 0 28 28" version="1.1" xmlns="http://www.w3.org/2000/svg" xmlns:xlink="http://www.w3.org/1999/xlink" xml:space="preserve" xmlns:serif="http://www.serif.com/" style="fill-rule:evenodd;clip-rule:evenodd;stroke-linejoin:round;stroke-miterlimit:2;">
    <g transform="matrix(1,0,0,1,-474.88,-292.88)">
        <g id="Artboard5" transform="matrix(1.18325,0,0,1.18325,-89.8404,-56.261)">
            <rect x="477.263" y="295.07" width="23.134" height="23.134" style="fill:none;"/>
            <g>
                <g transform="matrix(0.142053,0,0,0.142053,505.441,226.386)">
                    <path d="M-94.392,569.514L-94.392,598.75C-94.392,608.071 -101.977,615.656 -111.298,615.656L-128.203,615.656L-128.203,621.291C-128.203,627.507 -133.257,632.562 -139.473,632.562C-140.674,632.562 -141.818,632.393 -142.967,632.038L-176.881,620.733C-181.49,619.132 -184.556,614.833 -184.556,610.02L-184.556,508.585C-184.556,502.37 -179.501,497.316 -173.285,497.316C-173.009,497.316 -172.75,497.417 -172.479,497.439C-172.27,497.412 -172.091,497.316 -171.876,497.316L-111.298,497.316C-101.977,497.316 -94.392,504.901 -94.392,514.221L-94.392,539.834L-105.662,539.834L-105.662,514.221C-105.662,511.116 -108.187,508.585 -111.298,508.585L-128.203,508.585L-128.203,604.385L-111.298,604.385C-108.187,604.385 -105.662,601.855 -105.662,598.75L-105.662,569.514L-94.392,569.514Z" style="fill:rgb(6,79,129);fill-rule:nonzero;"/>
                </g>
                <g transform="matrix(0.142053,0,0,0.142053,505.441,226.386)">
                    <path d="M-120.657,559.303L-120.657,548.033L-83.121,548.033L-83.121,531.127C-83.121,528.85 -81.745,526.793 -79.644,525.919C-77.537,525.047 -75.113,525.532 -73.502,527.143L-50.96,549.684C-48.757,551.887 -48.757,555.449 -50.96,557.652L-73.502,580.194C-75.113,581.804 -77.537,582.289 -79.644,581.416C-81.745,580.542 -83.121,578.486 -83.121,576.209L-83.121,559.303L-120.657,559.303Z" style="fill:rgb(6,79,129);fill-rule:nonzero;"/>
                </g>
            </g>
        </g>
    </g>
</svg>
