<?xml version="1.0" encoding="UTF-8" standalone="no"?>
<!DOCTYPE svg PUBLIC "-//W3C//DTD SVG 1.1//EN" "http://www.w3.org/Graphics/SVG/1.1/DTD/svg11.dtd">
<svg width="100%" height="100%" viewBox="0 0 28 28" version="1.1" xmlns="http://www.w3.org/2000/svg" xmlns:xlink="http://www.w3.org/1999/xlink" xml:space="preserve" xmlns:serif="http://www.serif.com/" style="fill-rule:evenodd;clip-rule:evenodd;stroke-linejoin:round;stroke-miterlimit:2;">
    <g transform="matrix(1.54041,0,0,1.54041,-4.48399,-78.4239)">
        <path d="M11.795,66.466L10.801,66.911C10.368,67.105 9.859,66.969 9.582,66.585L8.943,65.702C8.86,65.586 8.731,65.512 8.589,65.497L7.505,65.386C7.034,65.337 6.661,64.965 6.613,64.493L6.501,63.41C6.487,63.268 6.412,63.139 6.297,63.056L5.414,62.417C5.03,62.14 4.894,61.631 5.087,61.198L5.533,60.204C5.591,60.074 5.591,59.925 5.533,59.795L5.087,58.801C4.894,58.368 5.03,57.859 5.414,57.582L6.297,56.943C6.412,56.86 6.487,56.731 6.501,56.589L6.613,55.505C6.661,55.034 7.034,54.661 7.505,54.613L8.589,54.501C8.731,54.487 8.86,54.412 8.943,54.297L9.582,53.414C9.859,53.03 10.368,52.894 10.801,53.087L11.795,53.533C11.925,53.591 12.074,53.591 12.204,53.533L13.198,53.087C13.631,52.894 14.14,53.03 14.417,53.414L15.056,54.297C15.139,54.412 15.268,54.487 15.41,54.501L16.493,54.613C16.965,54.661 17.337,55.034 17.386,55.505L17.497,56.589C17.512,56.731 17.586,56.86 17.702,56.943L18.585,57.582C18.969,57.859 19.105,58.368 18.911,58.801L18.466,59.795C18.408,59.925 18.408,60.074 18.466,60.204L18.911,61.198C19.105,61.631 18.969,62.14 18.585,62.417L17.702,63.056C17.586,63.139 17.512,63.268 17.497,63.41L17.386,64.493C17.337,64.965 16.965,65.337 16.493,65.386L15.41,65.497C15.268,65.512 15.139,65.586 15.056,65.702L14.417,66.585C14.14,66.969 13.631,67.105 13.198,66.911L12.204,66.466C12.074,66.408 11.925,66.408 11.795,66.466ZM9.298,59.054L8.449,59.902L11.298,62.751L15.671,58.378L14.822,57.529L11.298,61.054L9.298,59.054Z" style="fill:rgb(102, 102, 102);"/>
    </g>
</svg>
