<?xml version="1.0" encoding="UTF-8" standalone="no"?>
<!DOCTYPE svg PUBLIC "-//W3C//DTD SVG 1.1//EN" "http://www.w3.org/Graphics/SVG/1.1/DTD/svg11.dtd">
<svg width="100%" height="100%" viewBox="0 0 28 28" version="1.1" xmlns="http://www.w3.org/2000/svg" xmlns:xlink="http://www.w3.org/1999/xlink" xml:space="preserve" xmlns:serif="http://www.serif.com/" style="fill-rule:evenodd;clip-rule:evenodd;stroke-linejoin:round;stroke-miterlimit:2;">
    <g transform="matrix(1,0,0,1,-474.88,-292.88)">
        <g transform="matrix(0.506684,0,0,0.506684,476.973,294.973)">
            <path d="M39,8.833L30.667,8.833L30.667,2.167C30.667,2.129 30.658,2.093 30.656,2.056C30.651,2.002 30.649,1.948 30.639,1.893C30.628,1.836 30.611,1.782 30.593,1.727C30.583,1.694 30.578,1.66 30.566,1.626C30.563,1.619 30.559,1.614 30.556,1.607C30.535,1.552 30.505,1.502 30.477,1.45C30.456,1.414 30.44,1.375 30.417,1.341C30.391,1.3 30.358,1.265 30.327,1.228C30.297,1.19 30.267,1.149 30.233,1.114C30.201,1.081 30.163,1.054 30.128,1.024C30.09,0.992 30.055,0.958 30.015,0.93C29.97,0.899 29.92,0.876 29.871,0.85C29.836,0.83 29.802,0.808 29.765,0.792C29.716,0.771 29.663,0.757 29.612,0.741C29.57,0.728 29.53,0.712 29.488,0.702C29.443,0.693 29.397,0.69 29.352,0.684C29.298,0.677 29.245,0.669 29.19,0.668C29.182,0.668 29.174,0.666 29.167,0.666C29.128,0.666 29.091,0.675 29.052,0.678C28.999,0.682 28.948,0.684 28.895,0.694C28.837,0.705 28.783,0.723 28.728,0.74C28.695,0.75 28.661,0.755 28.627,0.767L7.46,8.934C7.453,8.936 7.448,8.94 7.441,8.943C7.384,8.966 7.332,8.996 7.279,9.025C7.245,9.044 7.208,9.06 7.176,9.081C7.133,9.109 7.095,9.144 7.055,9.177C7.02,9.206 6.981,9.232 6.948,9.265C6.915,9.298 6.887,9.336 6.856,9.373C6.825,9.41 6.792,9.445 6.764,9.485C6.735,9.527 6.714,9.573 6.689,9.618C6.668,9.658 6.643,9.695 6.625,9.736C6.606,9.779 6.595,9.826 6.58,9.871C6.564,9.919 6.546,9.965 6.536,10.014C6.528,10.053 6.526,10.093 6.52,10.133C6.512,10.193 6.503,10.252 6.502,10.313C6.502,10.32 6.5,10.327 6.5,10.334L6.5,44.835C6.5,45.663 7.171,46.335 8,46.335L39,46.335C39.828,46.335 40.5,45.663 40.5,44.835L40.5,10.333C40.5,9.504 39.828,8.833 39,8.833ZM27.667,4.353L27.667,8.833L16.055,8.833L27.667,4.353Z" style="fill:rgb(6,79,129);fill-rule:nonzero;"/>
        </g>
        <g transform="matrix(0.509741,0,0,0.509741,482.587,302.719)">
            <path d="M5.672,19.742C6.955,20.793 8.441,21.472 9.986,21.788C9.943,20.126 9.387,18.477 8.316,17.098L5.672,19.742ZM2.212,14.013C2.527,15.559 3.207,17.045 4.258,18.328L6.901,15.684C5.523,14.613 3.874,14.056 2.212,14.013ZM12,13.414L9.742,15.672C11.243,17.505 11.995,19.75 11.996,21.996L12,21.996C14.247,21.996 16.494,21.244 18.328,19.742L12,13.414ZM15.672,9.742L13.414,12L19.742,18.328C21.245,16.493 21.996,14.244 21.996,11.996C19.75,11.995 17.505,11.243 15.672,9.742ZM18.328,4.258C17.045,3.207 15.56,2.528 14.014,2.213C14.058,3.875 14.614,5.522 15.685,6.901L18.328,4.258ZM19.742,5.672L17.099,8.315C18.478,9.387 20.126,9.943 21.788,9.986C21.473,8.44 20.793,6.955 19.742,5.672ZM12,10.586L14.258,8.328C12.757,6.496 12.006,4.251 12.004,2.005C9.756,2.004 7.507,2.756 5.672,4.258L12,10.586ZM2.004,12.005C2.003,9.756 2.755,7.508 4.258,5.672L10.586,12L8.328,14.258C6.496,12.758 4.25,12.006 2.004,12.005Z" style="fill:white;"/>
        </g>
    </g>
</svg>
